<?xml version="1.0" encoding="UTF-8"?>
<svg id="Warstwa_1" data-name="Warstwa 1" xmlns="http://www.w3.org/2000/svg" xmlns:xlink="http://www.w3.org/1999/xlink" version="1.1" viewBox="0 0 250 72">
  <defs>
    <style>
      .cls-1 {
        clip-path: url(#clippath);
      }

      .cls-2 {
        fill: none;
      }

      .cls-2, .cls-3, .cls-4, .cls-5, .cls-6, .cls-7, .cls-8, .cls-9, .cls-10, .cls-11, .cls-12, .cls-13 {
        stroke-width: 0px;
      }

      .cls-3 {
        fill: url(#Gradient_bez_nazwy);
      }

      .cls-4 {
        fill: url(#Gradient_bez_nazwy_11);
      }

      .cls-5 {
        fill: url(#Gradient_bez_nazwy_10);
      }

      .cls-6 {
        fill: url(#Gradient_bez_nazwy_3);
      }

      .cls-7 {
        fill: url(#Gradient_bez_nazwy_5);
      }

      .cls-8 {
        fill: url(#Gradient_bez_nazwy_2);
      }

      .cls-9 {
        fill: url(#Gradient_bez_nazwy_7);
      }

      .cls-10 {
        fill: url(#Gradient_bez_nazwy_6);
      }

      .cls-11 {
        fill: url(#Gradient_bez_nazwy_4);
      }

      .cls-12 {
        fill: url(#Gradient_bez_nazwy_8);
      }

      .cls-13 {
        fill: url(#Gradient_bez_nazwy_9);
      }
    </style>
    <clipPath id="clippath">
      <rect class="cls-2" y="-.00001" width="250" height="72"/>
    </clipPath>
    <linearGradient id="Gradient_bez_nazwy" data-name="Gradient bez nazwy" x1="37.17879" y1="-86.01899" x2="35.47269" y2="90.42601" gradientTransform="translate(0 71.88999) scale(1 -1)" gradientUnits="userSpaceOnUse">
      <stop offset="0" stop-color="#a8a8a6"/>
      <stop offset=".45164" stop-color="#696969"/>
      <stop offset=".5443" stop-color="#a6a6a5"/>
      <stop offset=".665" stop-color="#f9f8f6"/>
      <stop offset=".825" stop-color="#d4d4d4"/>
      <stop offset="1" stop-color="#7f7f7f"/>
    </linearGradient>
    <linearGradient id="Gradient_bez_nazwy_2" data-name="Gradient bez nazwy 2" x1="123.29053" y1="2.82875" x2="122.88353" y2="45.17695" gradientTransform="translate(0 71.88999) scale(1 -1)" gradientUnits="userSpaceOnUse">
      <stop offset="0" stop-color="#a8a8a6"/>
      <stop offset=".45164" stop-color="#696969"/>
      <stop offset=".5443" stop-color="#a6a6a5"/>
      <stop offset=".665" stop-color="#f9f8f6"/>
      <stop offset=".825" stop-color="#d4d4d4"/>
      <stop offset="1" stop-color="#7f7f7f"/>
    </linearGradient>
    <linearGradient id="Gradient_bez_nazwy_3" data-name="Gradient bez nazwy 3" x1="100.40388" y1="-6.24309" x2="99.79088" y2="54.73771" gradientTransform="translate(0 71.88999) scale(1 -1)" gradientUnits="userSpaceOnUse">
      <stop offset="0" stop-color="#a8a8a6"/>
      <stop offset=".45164" stop-color="#696969"/>
      <stop offset=".5443" stop-color="#a6a6a5"/>
      <stop offset=".665" stop-color="#f9f8f6"/>
      <stop offset=".825" stop-color="#d4d4d4"/>
      <stop offset="1" stop-color="#7f7f7f"/>
    </linearGradient>
    <linearGradient id="Gradient_bez_nazwy_4" data-name="Gradient bez nazwy 4" x1="242.6292" y1="4.48268" x2="242.1672" y2="44.71188" gradientTransform="translate(0 71.88999) scale(1 -1)" gradientUnits="userSpaceOnUse">
      <stop offset="0" stop-color="#a8a8a6"/>
      <stop offset=".45164" stop-color="#696969"/>
      <stop offset=".5443" stop-color="#a6a6a5"/>
      <stop offset=".665" stop-color="#f9f8f6"/>
      <stop offset=".825" stop-color="#d4d4d4"/>
      <stop offset="1" stop-color="#7f7f7f"/>
    </linearGradient>
    <linearGradient id="Gradient_bez_nazwy_5" data-name="Gradient bez nazwy 5" x1="223.24457" y1="3.7241" x2="222.84357" y2="44.80179" gradientTransform="translate(0 71.88999) scale(1 -1)" gradientUnits="userSpaceOnUse">
      <stop offset="0" stop-color="#a8a8a6"/>
      <stop offset=".45164" stop-color="#696969"/>
      <stop offset=".5443" stop-color="#a6a6a5"/>
      <stop offset=".665" stop-color="#f9f8f6"/>
      <stop offset=".825" stop-color="#d4d4d4"/>
      <stop offset="1" stop-color="#7f7f7f"/>
    </linearGradient>
    <linearGradient id="Gradient_bez_nazwy_6" data-name="Gradient bez nazwy 6" x1="212.7729" y1="-2.69555" x2="208.4609" y2="52.44845" gradientTransform="translate(0 71.88999) scale(1 -1)" gradientUnits="userSpaceOnUse">
      <stop offset="0" stop-color="#a8a8a6"/>
      <stop offset=".45164" stop-color="#696969"/>
      <stop offset=".5443" stop-color="#a6a6a5"/>
      <stop offset=".665" stop-color="#f9f8f6"/>
      <stop offset=".825" stop-color="#d4d4d4"/>
      <stop offset="1" stop-color="#7f7f7f"/>
    </linearGradient>
    <linearGradient id="Gradient_bez_nazwy_7" data-name="Gradient bez nazwy 7" x1="201.03065" y1="-3.21253" x2="199.79764" y2="52.83457" gradientTransform="translate(0 71.88999) scale(1 -1)" gradientUnits="userSpaceOnUse">
      <stop offset="0" stop-color="#a8a8a6"/>
      <stop offset=".45164" stop-color="#696969"/>
      <stop offset=".5443" stop-color="#a6a6a5"/>
      <stop offset=".665" stop-color="#f9f8f6"/>
      <stop offset=".825" stop-color="#d4d4d4"/>
      <stop offset="1" stop-color="#7f7f7f"/>
    </linearGradient>
    <linearGradient id="Gradient_bez_nazwy_8" data-name="Gradient bez nazwy 8" x1="185.61633" y1="4.13821" x2="185.13633" y2="44.367" gradientTransform="translate(0 71.88999) scale(1 -1)" gradientUnits="userSpaceOnUse">
      <stop offset="0" stop-color="#a8a8a6"/>
      <stop offset=".45164" stop-color="#696969"/>
      <stop offset=".5443" stop-color="#a6a6a5"/>
      <stop offset=".665" stop-color="#f9f8f6"/>
      <stop offset=".825" stop-color="#d4d4d4"/>
      <stop offset="1" stop-color="#7f7f7f"/>
    </linearGradient>
    <linearGradient id="Gradient_bez_nazwy_9" data-name="Gradient bez nazwy 9" x1="178.27212" y1="-4.16788" x2="170.49614" y2="54.25942" gradientTransform="translate(0 71.88999) scale(1 -1)" gradientUnits="userSpaceOnUse">
      <stop offset="0" stop-color="#a8a8a6"/>
      <stop offset=".45164" stop-color="#696969"/>
      <stop offset=".5443" stop-color="#a6a6a5"/>
      <stop offset=".665" stop-color="#f9f8f6"/>
      <stop offset=".825" stop-color="#d4d4d4"/>
      <stop offset="1" stop-color="#7f7f7f"/>
    </linearGradient>
    <linearGradient id="Gradient_bez_nazwy_10" data-name="Gradient bez nazwy 10" x1="159.82656" y1="3.7241" x2="159.42556" y2="44.80179" gradientTransform="translate(0 71.88999) scale(1 -1)" gradientUnits="userSpaceOnUse">
      <stop offset="0" stop-color="#a8a8a6"/>
      <stop offset=".45164" stop-color="#696969"/>
      <stop offset=".5443" stop-color="#a6a6a5"/>
      <stop offset=".665" stop-color="#f9f8f6"/>
      <stop offset=".825" stop-color="#d4d4d4"/>
      <stop offset="1" stop-color="#7f7f7f"/>
    </linearGradient>
    <linearGradient id="Gradient_bez_nazwy_11" data-name="Gradient bez nazwy 11" x1="140.81857" y1="-5.21983" x2="139.92356" y2="54.22907" gradientTransform="translate(0 71.88999) scale(1 -1)" gradientUnits="userSpaceOnUse">
      <stop offset="0" stop-color="#a8a8a6"/>
      <stop offset=".45164" stop-color="#696969"/>
      <stop offset=".5443" stop-color="#a6a6a5"/>
      <stop offset=".665" stop-color="#f9f8f6"/>
      <stop offset=".825" stop-color="#d4d4d4"/>
      <stop offset="1" stop-color="#7f7f7f"/>
    </linearGradient>
  </defs>
  <g class="cls-1">
    <g>
      <path class="cls-3" d="M36-.00099c19.8821.0002,36,16.11788,36,35.99998-.0001,19.882-16.118,35.9998-36,36C16.1178,71.99899.00013,55.88118,0,35.99899,0,16.11679,16.1177-.00099,36-.00099ZM55.543,23.56249c-1.4449.0001-2.7771.2686-3.9795.8203l-.1114.0508c-1.1402.5335-2.0688,1.305-2.7646,2.3125l-.001.0019-.0019.001c-.7162,1.0488-1.0527,2.3024-1.0528,3.7149,0,1.2367.2092,2.3298.6758,3.2373l.0049.0078.0039.0078c.4654.8573,1.0747,1.5707,1.8291,2.124l.0068.0049.0079.0059c.7016.4911,1.4704.9093,2.3017,1.2558l.0098.0039.0088.0039c.787.3061,1.5751.6015,2.3623.8858l.0097.0039.0098.0029c.7423.2475,1.4164.5343,2.0225.8574l.0146.0078.0137.0069c.5729.2772.997.6232,1.2988,1.0254.257.3427.4238.8395.4238,1.5625,0,.7588-.288,1.3133-.8955,1.7451l-.0039.0029-.0039.0039c-.6219.4536-1.5106.7216-2.7431.7217-1.2683-.0001-2.2777-.2309-3.0625-.6494-.0625-.035-.1231-.0738-.1846-.1113-.0077-.0044-.0159-.0082-.0234-.0127l-9.4815-5.7246c.1008.4017.1523.8332.1523,1.2968,0,.9774-.2068,1.82-.5996,2.5479-.3965.7113-.9352,1.2673-1.624,1.6807-.6739.4042-1.4575.6171-2.375.6171-.9172-.0001-1.7002-.2129-2.374-.6171-.6888-.4134-1.2275-.9694-1.624-1.6807-.3927-.7279-.5996-1.5705-.5996-2.5479,0-.952.2054-1.769.5957-2.4716.3948-.7105.9298-1.2521,1.6113-1.6416l.0078-.0049.0088-.0049c.0865-.0519.1755-.101.2656-.1465-.1951-.0147-.3914-.0224-.5879-.0225h-14.3525c-.0328,0-.0657-.0018-.0977-.0048v4.4199h6.7276c-.143.6832-.3584,1.2927-.6416,1.831-.5524,1.0278-1.3349,1.7988-2.3594,2.3301l-.0029.002-.002.0009c-1.01.5335-2.2418.8173-3.7217.8174-1.4285,0-2.6697-.3354-3.7451-.9883-1.0876-.6604-1.9558-1.5739-2.6064-2.7568-.6405-1.1646-.9737-2.5353-.9737-4.1338.0002-1.5761.3225-2.9369.9434-4.1035.646-1.1728,1.5286-2.0838,2.6553-2.7451,1.1423-.6576,2.464-.997,3.9863-.9971,1.2748.0001,2.4341.2592,3.4883.7666l.0058.002.0059.0029c1.0422.4826,1.8714,1.1811,2.5029,2.0996l.5547.8057,3.3174-3.3174-.4443-.5674c-1.1011-1.4055-2.4752-2.4854-4.1114-3.2334-1.6333-.7466-3.4108-1.1162-5.3193-1.1162-1.7476.0001-3.3854.3114-4.9023.9414l-.004.002c-1.4867.6272-2.793,1.5131-3.9111,2.6543-1.1151,1.1384-1.9858,2.4627-2.61034,3.9648l-.05859.1406c-.59222,1.4571-.88466,3.027-.88477,4.7002,0,1.7275.31189,3.3543.94141,4.8701.62319,1.5003,1.48099,2.8241,2.57329,3.9629l.0058.0059c1.1139,1.137,2.4048,2.0315,3.8652,2.6807l.0069.0039.0068.0029c1.4939.6302,3.0893.9423,4.7764.9424,2.221-.0001,4.2247-.4697,5.9863-1.4317,1.2419-.67,2.2895-1.5671,3.1426-2.6797.8019,1.1525,1.8196,2.0945,3.0478,2.8184,1.4667.8642,3.1097,1.2899,4.9053,1.29,1.7746,0,3.4063-.4269,4.8711-1.29,1.3933-.808,2.5159-1.889,3.3574-3.2344l.3223.4082c1.0401,1.3175,2.2459,2.3409,3.6182,3.0508,1.3999.7241,3.0547,1.0683,4.9316,1.0684,2.4712-.0001,4.5308-.5964,6.085-1.8789,1.5991-1.3019,2.3787-3.1084,2.3789-5.3155-.0001-1.2748-.2185-2.3988-.7051-3.3281-.4405-.9021-1.0376-1.6537-1.7949-2.2344-.7083-.5429-1.4865-.9902-2.3301-1.3418-.7961-.3317-1.6046-.6316-2.4229-.8974-.7513-.2717-1.4356-.5621-2.0517-.8701-.5688-.2845-1.0102-.6133-1.3418-.9756-.2383-.2998-.3897-.7192-.3897-1.3242.0002-.7179.2526-1.2016.7393-1.5557l.0068-.0049.0059-.0039c.5322-.403,1.3071-.6493,2.4062-.6494.8902,0,1.6385.1742,2.2647.4961l.0078.0039c.6689.3345,1.314.8478,1.9287,1.5615l.5723.6641,3.2158-3.2158-.4492-.5674c-.7956-1.006-1.8119-1.8108-3.0313-2.417l-.1191-.0586c-1.2953-.6452-2.7433-.9589-4.3242-.959ZM37.791,29.15429c-1.7955.0001-3.4386.4259-4.9053,1.29-.9116.5373-1.7071,1.1954-2.3847,1.9698h5.1523c1.4262.0001,2.8258.3892,4.0469,1.1259l7.7324,4.6661c-.0776-1.5688-.4985-3.0203-1.2744-4.337-.8547-1.4501-2.0248-2.5951-3.4961-3.4248-1.4648-.863-3.0965-1.2899-4.8711-1.29Z"/>
      <path class="cls-8" d="M122.992,48.44219c-1.613,0-3.076-.3802-4.39-1.1405-1.313-.7834-2.361-1.8318-3.145-3.1451-.76-1.3133-1.14-2.7764-1.14-4.3893,0-1.6128.38-3.0644,1.14-4.3547.784-1.2902,1.832-2.3156,3.145-3.0759,1.314-.7834,2.777-1.1751,4.39-1.1751,1.636,0,3.11.3802,4.424,1.1405,1.313.7604,2.35001,1.7972,3.11,3.1105.783,1.2903,1.175,2.7419,1.175,4.3547,0,1.6129-.392,3.076-1.175,4.3893-.75999,1.3133-1.797,2.3617-3.11,3.1451-1.314.7603-2.788,1.1405-4.424,1.1405ZM122.992,44.77869c.944,0,1.774-.2074,2.48801-.6221.737-.4378,1.30199-1.0368,1.694-1.7972.41399-.7603.62199-1.6244.62199-2.5921s-.208-1.8202-.62199-2.5575c-.415-.7373-.98-1.3133-1.694-1.728-.714-.4378-1.54401-.6567-2.48801-.6567-.922,0-1.751.2189-2.489.6567-.714.4147-1.278.9907-1.693,1.728-.392.7373-.588,1.5898-.588,2.5575s.196,1.8318.588,2.5921c.415.7604.979,1.3594,1.693,1.7972.738.4147,1.567.6221,2.489.6221Z"/>
      <path class="cls-6" d="M100.131,48.44209c-1.659,0-3.2258-.3226-4.70039-.9677-1.4746-.6452-2.7649-1.5322-3.8708-2.6612-1.106-1.1521-1.9815-2.4769-2.6267-3.9745-.6221-1.5207-.9331-3.1451-.9331-4.8732,0-1.728.311-3.3409.9331-4.8385.6452-1.4977,1.5207-2.811,2.6267-3.94,1.129-1.152,2.4423-2.0391,3.94-2.6612,1.5206-.6451,3.1565-.9677,4.9072-.9677,1.913,0,3.687.3687,5.32301,1.106,1.63599.7373,3.007,1.7856,4.113,3.145l-2.696,2.6958c-.714-1.0138-1.67101-1.7857-2.869-2.3156-1.198-.553-2.488-.8295-3.871-.8295-1.6585,0-3.1216.3687-4.38879,1.106-1.2442.7142-2.21191,1.7165-2.90321,3.0068-.6912,1.2903-1.0368,2.7879-1.0368,4.4929,0,1.7051.3456,3.2142,1.0368,4.5275.7143,1.2903,1.6705,2.3041,2.8686,3.0414,1.1981.7373,2.5575,1.106,4.0784,1.106,1.61301,0,2.995-.288,4.147-.864,1.175-.5991,2.074-1.4747,2.696-2.6267.622-1.1751.933-2.6151.933-4.3201l2.488,1.7971h-10.3333v-3.6289h11.9583v.553c0,2.8801-.519,5.2763-1.55499,7.1887-1.014,1.9124-2.408,3.3409-4.18201,4.2856-1.77399.9447-3.80199,1.417-6.083,1.417Z"/>
      <path class="cls-11" d="M247.532,47.81979v-9.5388c0-1.5668-.45999-2.834-1.382-3.8017-.922-.9678-2.14299-1.4516-3.66299-1.4516-1.037,0-1.959.2304-2.765.6912-.784.4378-1.40601,1.0484-1.867,1.8318-.437.7833-.65599,1.6934-.65599,2.7303l-.899-.5184c0-1.2212.28799-2.3041.864-3.2488.576-.9677,1.36-1.728,2.35001-2.281.991-.553,2.12-.8295,3.38699-.8295s2.373.2996,3.31799.8986c.968.576,1.71701,1.3709,2.24701,2.3847s.79399,2.1428.79399,3.387v9.7462h-1.728ZM235.436,47.81979v-16.0709h1.763v16.0709h-1.763Z"/>
      <path class="cls-7" d="M222.98399,48.16549c-1.56699,0-2.98399-.3687-4.25099-1.106-1.244-.7603-2.235-1.7741-2.972-3.0414-.73801-1.2903-1.106-2.7188-1.106-4.2856,0-1.5667.368-2.9722,1.106-4.2164.737-1.2672,1.728-2.2695,2.972-3.0068,1.267-.7373,2.68401-1.106,4.25099-1.106,1.54401,0,2.938.3687,4.18201,1.106,1.267.7373,2.269,1.7396,3.007,3.0068.737,1.2442,1.106,2.6497,1.106,4.2164,0,1.5899-.369,3.0184-1.106,4.2856-.73801,1.2673-1.74001,2.2811-3.007,3.0414-1.244.7373-2.638,1.106-4.18201,1.106ZM222.98399,46.50649c1.22101,0,2.31601-.2995,3.283-.8986.991-.599,1.763-1.4055,2.31599-2.4192.576-1.0369.86401-2.2004.86401-3.4907,0-1.2673-.28801-2.3963-.86401-3.387-.55299-.9908-1.325-1.7741-2.31599-2.3502-.967-.599-2.062-.8985-3.283-.8985-1.24399,0-2.362.2995-3.35199.8985-.968.5761-1.74001,1.3594-2.31601,2.3502-.57599.9907-.864,2.1313-.864,3.4215,0,1.2903.28801,2.4424.864,3.4562.576,1.0137,1.34801,1.8202,2.31601,2.4192.98999.5991,2.108.8986,3.35199.8986Z"/>
      <path class="cls-10" d="M208.70599,47.82008v-16.0709h1.72801v16.0709h-1.72801ZM209.57001,28.01659c-.39201,0-.72601-.1382-1.00201-.4147-.254-.2995-.37999-.6451-.37999-1.0368s.12599-.7143.37999-.9677c.276-.2765.61-.4148,1.00201-.4148s.726.1383,1.002.4148c.27699.2534.41499.576.41499.9677s-.138.7373-.41499,1.0368c-.276.2765-.61.4147-1.002.4147Z"/>
      <path class="cls-9" d="M199.213,47.81989v-22.8795h1.76201v22.8795h-1.76201ZM195.065,33.30418v-1.5552h10.058v1.5552h-10.058Z"/>
      <path class="cls-12" d="M185.261,48.16549c-1.291,0-2.44301-.2995-3.45601-.8985-1.01399-.5991-1.80899-1.4286-2.38499-2.4884-.55299-1.0599-.83-2.2811-.83-3.6635v-9.3661h1.763v9.297c0,1.0829.196,2.0391.58701,2.8685.41499.8065.991,1.4401,1.729,1.9009.737.4608,1.601.6912,2.592.6912,1.474,0,2.649-.4954,3.52499-1.4861.89801-1.0138,1.34801-2.3386,1.34801-3.9745v-9.297h1.76199v9.3661c0,1.3824-.28799,2.6036-.864,3.6635-.55299,1.0598-1.336,1.8893-2.34999,2.4884-.99101.599-2.13101.8985-3.42101.8985Z"/>
      <path class="cls-13" d="M172.01801,47.81999v-24.2619h1.763v24.2619h-1.763Z"/>
      <path class="cls-5" d="M159.56599,48.16549c-1.567,0-2.98399-.3687-4.25099-1.106-1.244-.7603-2.235-1.7741-2.972-3.0414-.73801-1.2903-1.106-2.7188-1.106-4.2856,0-1.5667.368-2.9722,1.106-4.2164.737-1.2672,1.728-2.2695,2.972-3.0068,1.267-.7373,2.68399-1.106,4.25099-1.106,1.54401,0,2.938.3687,4.18201,1.106,1.267.7373,2.269,1.7396,3.007,3.0068.737,1.2442,1.10599,2.6497,1.10599,4.2164,0,1.5899-.36899,3.0184-1.10599,4.2856-.73801,1.2673-1.74001,2.2811-3.007,3.0414-1.244.7373-2.638,1.106-4.18201,1.106ZM159.56599,46.50649c1.22101,0,2.31601-.2995,3.283-.8986.991-.599,1.763-1.4055,2.31599-2.4192.576-1.0369.86401-2.2004.86401-3.4907,0-1.2673-.28801-2.3963-.86401-3.387-.55299-.9908-1.325-1.7741-2.31599-2.3502-.967-.599-2.062-.8985-3.283-.8985-1.24399,0-2.362.2995-3.35199.8985-.968.5761-1.74001,1.3594-2.31601,2.3502-.57599.9907-.864,2.1313-.864,3.4215,0,1.2903.28801,2.4424.864,3.4562.576,1.0137,1.34801,1.8202,2.31601,2.4192.98999.5991,2.108.8986,3.35199.8986Z"/>
      <path class="cls-4" d="M140.662,48.16568c-1.843,0-3.433-.3456-4.769-1.0368-1.33701-.7143-2.489-1.6935-3.45601-2.9377l1.278-1.2442c.899,1.2211,1.91301,2.1197,3.04201,2.6957,1.15199.553,2.47699.8295,3.974.8295,1.61299,0,2.92599-.3802,3.94-1.1405,1.01399-.7604,1.521-1.8202,1.521-3.1796,0-1.0369-.21899-1.8778-.657-2.523-.438-.6451-1.02501-1.1751-1.76201-1.5898-.715-.4147-1.50999-.7834-2.38499-1.106-.853-.3225-1.717-.6451-2.592-.9677-.85301-.3456-1.636-.7603-2.35001-1.2442-.715-.5069-1.302-1.152-1.763-1.9354-.438-.7834-.657-1.7741-.657-2.9722,0-1.1982.28799-2.235.864-3.1105.599-.8986,1.40601-1.5899,2.42-2.0737,1.036-.4839,2.22301-.7258,3.55901-.7258,1.521,0,2.881.2995,4.07899.8986,1.198.576,2.2,1.394,3.006,2.4538l-1.278,1.2442c-.761-.9446-1.61299-1.6589-2.558-2.1428-.92099-.5068-2.01599-.7603-3.28299-.7603-1.47501,0-2.673.3687-3.59401,1.106-.899.7142-1.34799,1.7165-1.34799,3.0068,0,.9677.21899,1.7511.65599,2.3501.438.5991,1.01401,1.106,1.728,1.5207.73801.3917,1.533.7373,2.38501,1.0369.87599.2995,1.73999.6221,2.592.9677.853.3456,1.636.7833,2.35001,1.3133.73799.5069,1.325,1.1635,1.763,1.97.43799.8064.657,1.8317.657,3.0759,0,2.0045-.66901,3.5483-2.005,4.6312-1.313,1.0599-3.099,1.5898-5.35699,1.5898Z"/>
    </g>
  </g>
</svg>