<svg width="24" height="24" viewBox="0 0 24 24" fill="none" xmlns="http://www.w3.org/2000/svg">
<path d="M10.25 14C10.8023 14 11.25 14.4477 11.25 15C11.25 15.5523 10.8023 16 10.25 16H7.5C6.94772 16 6.5 15.5523 6.5 15C6.5 14.4477 6.94772 14 7.5 14H10.25Z" fill="#111111"/>
<path d="M16.5 14C17.0523 14 17.5 14.4477 17.5 15C17.5 15.5523 17.0523 16 16.5 16H13.75C13.1977 16 12.75 15.5523 12.75 15C12.75 14.4477 13.1977 14 13.75 14H16.5Z" fill="#111111"/>
<path d="M10.25 10C10.8023 10 11.25 10.4477 11.25 11C11.25 11.5523 10.8023 12 10.25 12H7.5C6.94772 12 6.5 11.5523 6.5 11C6.5 10.4477 6.94772 10 7.5 10H10.25Z" fill="#111111"/>
<path d="M16.5 10C17.0523 10 17.5 10.4477 17.5 11C17.5 11.5523 17.0523 12 16.5 12H13.75C13.1977 12 12.75 11.5523 12.75 11C12.75 10.4477 13.1977 10 13.75 10H16.5Z" fill="#111111"/>
<path d="M10.25 6C10.8023 6 11.25 6.44772 11.25 7C11.25 7.55229 10.8023 8 10.25 8H7.5C6.94772 8 6.5 7.55229 6.5 7C6.5 6.44772 6.94772 6 7.5 6H10.25Z" fill="#111111"/>
<path d="M16.5 6C17.0523 6 17.5 6.44772 17.5 7C17.5 7.55229 17.0523 8 16.5 8H13.75C13.1977 8 12.75 7.55229 12.75 7C12.75 6.44772 13.1977 6 13.75 6H16.5Z" fill="#111111"/>
<path fill-rule="evenodd" clip-rule="evenodd" d="M16.8398 2C17.3663 1.99999 17.8209 1.99968 18.1953 2.03027C18.5906 2.06259 18.984 2.13442 19.3623 2.32715C19.9265 2.61472 20.3853 3.07347 20.6729 3.6377C20.8656 4.01596 20.9374 4.40937 20.9697 4.80469C21.0003 5.17912 21 5.63365 21 6.16016V20H22C22.5523 20 23 20.4477 23 21C23 21.5523 22.5523 22 22 22H2C1.44772 22 1 21.5523 1 21C1 20.4477 1.44772 20 2 20H3V6.16016C2.99999 5.63367 2.99968 5.17911 3.03027 4.80469C3.06259 4.40937 3.13442 4.01596 3.32715 3.6377C3.61472 3.07347 4.07347 2.61472 4.6377 2.32715C5.01596 2.13442 5.40936 2.06259 5.80469 2.03027C6.17911 1.99968 6.63366 1.99999 7.16016 2H16.8398ZM7.2002 4C6.62352 4 6.25108 4.00127 5.96777 4.02442C5.69604 4.04662 5.59526 4.08423 5.5459 4.10938C5.35793 4.20522 5.20522 4.35793 5.10938 4.5459C5.08423 4.59526 5.04662 4.69605 5.02441 4.96777C5.00127 5.25108 5 5.62352 5 6.2002V20H19V6.2002C19 5.62352 18.9987 5.25108 18.9756 4.96777C18.9534 4.69605 18.9158 4.59526 18.8906 4.5459C18.7948 4.35793 18.6421 4.20521 18.4541 4.10938C18.4047 4.08423 18.304 4.04662 18.0322 4.02442C17.7489 4.00127 17.3765 4 16.7998 4H7.2002Z" fill="#111111"/>
</svg>
