<svg width="24" height="24" viewBox="0 0 24 24" fill="none" xmlns="http://www.w3.org/2000/svg">
<path d="M9.49994 15.5C12.7827 15.5 15.6943 17.2197 17.7861 19.8818C18.1272 20.316 18.0521 20.9449 17.6181 21.2861C17.1839 21.6273 16.5551 21.5521 16.2138 21.1182C14.4126 18.8257 12.0387 17.5 9.49994 17.5C6.96118 17.5 4.58727 18.8257 2.78607 21.1182C2.44482 21.5522 1.81595 21.6272 1.38177 21.2861C0.947775 20.9449 0.87268 20.316 1.21381 19.8818C3.30557 17.2197 6.21721 15.5 9.49994 15.5Z" fill="#FFFFFF"/>
<path d="M17.0888 16.8545C17.3165 16.3514 17.9089 16.1278 18.412 16.3555C20.0898 17.1147 21.5739 18.3391 22.7861 19.8818C23.1272 20.316 23.0521 20.9449 22.6181 21.2861C22.1839 21.6273 21.5551 21.5521 21.2138 21.1182C20.1712 19.7911 18.9327 18.7864 17.5878 18.1777C17.0848 17.9501 16.8614 17.3576 17.0888 16.8545Z" fill="#FFFFFF"/>
<path fill-rule="evenodd" clip-rule="evenodd" d="M9.49994 2.5C12.5375 2.50003 14.9999 4.96245 14.9999 8C14.9999 11.0375 12.5375 13.5 9.49994 13.5C6.46237 13.5 3.99994 11.0376 3.99994 8C3.99994 4.96243 6.46237 2.5 9.49994 2.5ZM9.49994 4.5C7.56694 4.5 5.99994 6.067 5.99994 8C5.99994 9.933 7.56694 11.5 9.49994 11.5C11.4329 11.5 12.9999 9.93298 12.9999 8C12.9999 6.06702 11.4329 4.50003 9.49994 4.5Z" fill="#FFFFFF"/>
<path d="M15.1044 3.52246C15.3503 3.02806 15.9508 2.82652 16.4453 3.07227C18.2537 3.9711 19.4999 5.83915 19.4999 8C19.4999 10.1608 18.2537 12.0289 16.4453 12.9277C15.9508 13.1735 15.3503 12.9719 15.1044 12.4775C14.8587 11.983 15.0602 11.3826 15.5546 11.1367C16.7095 10.5628 17.4999 9.37274 17.4999 8C17.4999 6.62726 16.7095 5.43721 15.5546 4.86328C15.0602 4.61743 14.8587 4.01697 15.1044 3.52246Z" fill="#FFFFFF"/>
</svg>
