<svg width="24" height="24" viewBox="0 0 24 24" fill="none" xmlns="http://www.w3.org/2000/svg">
<path d="M12 14.5C12.5523 14.5 13 14.9477 13 15.5C13 16.0523 12.5523 16.5 12 16.5H7.50002C6.03068 16.5 5.51877 16.5106 5.12893 16.6289C4.17026 16.9198 3.41978 17.6702 3.12893 18.6289C3.01067 19.0188 3.00002 19.5306 3.00002 21C3.00002 21.5523 2.5523 22 2.00002 22C1.44777 22 1.00002 21.5523 1.00002 21V20.8154C0.999722 19.5946 1.00006 18.7603 1.21584 18.0488C1.70059 16.4508 2.95084 15.1996 4.54885 14.7148C5.26022 14.4991 6.09482 14.4997 7.31545 14.5H12Z" fill="#111111"/>
<path d="M21.293 15.293C21.6835 14.9025 22.3165 14.9025 22.7071 15.293C23.0976 15.6835 23.0976 16.3165 22.7071 16.707L18.7071 20.707C18.3165 21.0975 17.6835 21.0975 17.293 20.707L15.293 18.707C14.9025 18.3165 14.9025 17.6835 15.293 17.293C15.6835 16.9025 16.3165 16.9025 16.7071 17.293L18 18.5859L21.293 15.293Z" fill="#111111"/>
<path fill-rule="evenodd" clip-rule="evenodd" d="M10 2C13.0376 2 15.5 4.46243 15.5 7.5C15.5 10.5376 13.0376 13 10 13C6.96249 13 4.50002 10.5375 4.50002 7.5C4.50002 4.46246 6.96249 2.00004 10 2ZM10 4C8.06706 4.00004 6.50002 5.56703 6.50002 7.5C6.50002 9.43297 8.06706 11 10 11C11.933 11 13.5 9.433 13.5 7.5C13.5 5.567 11.933 4 10 4Z" fill="#111111"/>
</svg>
