<svg width="24" height="24" viewBox="0 0 24 24" fill="none" xmlns="http://www.w3.org/2000/svg">
<path d="M15.7441 1C16.5492 0.999993 17.2137 0.999733 17.7549 1.04395C18.3168 1.08988 18.8328 1.18867 19.3174 1.43555C20.0692 1.81861 20.6803 2.4299 21.0635 3.18164C21.3104 3.66627 21.4092 4.18304 21.4551 4.74512C21.4993 5.28614 21.499 5.95008 21.499 6.75488V17.2451C21.499 18.0499 21.4993 18.7139 21.4551 19.2549C21.4092 19.817 21.3104 20.3337 21.0635 20.8184C20.6803 21.5701 20.0692 22.1814 19.3174 22.5645C18.8328 22.8113 18.3168 22.9101 17.7549 22.9561C17.2138 23.0003 16.5492 23 15.7441 23H9.25684C8.45182 23 7.78721 23.0003 7.24609 22.9561C6.68413 22.9101 6.16813 22.8113 5.68359 22.5645C4.9318 22.1814 4.32066 21.5701 3.9375 20.8184C3.69057 20.3337 3.59182 19.817 3.5459 19.2549C3.50171 18.7139 3.50195 18.0499 3.50195 17.2451V16.502C3.50215 15.9528 3.94689 15.5079 4.49609 15.5078C5.0454 15.5078 5.49101 15.9527 5.49121 16.502V17.2031C5.49121 18.0597 5.49154 18.6423 5.52832 19.0928C5.56419 19.5318 5.62978 19.7577 5.70996 19.915C5.90236 20.2925 6.20944 20.5997 6.58691 20.792C6.74425 20.8721 6.96946 20.9368 7.4082 20.9727C7.85879 21.0095 8.44182 21.0107 9.29883 21.0107H15.7021C16.5591 21.0107 17.1422 21.0095 17.5928 20.9727C18.0315 20.9368 18.2567 20.8721 18.4141 20.792C18.7915 20.5997 19.0986 20.2925 19.291 19.915C19.3712 19.7577 19.4368 19.5318 19.4727 19.0928C19.5094 18.6423 19.5098 18.0597 19.5098 17.2031V6.79688C19.5098 5.94033 19.5094 5.35769 19.4727 4.90723C19.4368 4.46816 19.3712 4.24233 19.291 4.08496C19.0986 3.70752 18.7915 3.40034 18.4141 3.20801C18.2567 3.12788 18.0315 3.06321 17.5928 3.02734C17.1422 2.99053 16.5591 2.98926 15.7021 2.98926H13.001C12.4516 2.98926 12.006 2.54442 12.0059 1.99512C12.0059 1.44569 12.4515 1 13.001 1H15.7441Z" fill="#555555"/>
<path d="M7.99805 2.00098C9.37632 2.00098 10.4941 3.11782 10.4941 4.49609V9.99902C10.4941 12.2061 8.70419 13.9951 6.49707 13.9951C4.29008 13.995 2.50101 12.206 2.50098 9.99902V5.99707C2.50098 5.44764 2.94666 5.00195 3.49609 5.00195C4.04539 5.00211 4.49023 5.44774 4.49023 5.99707V9.99902C4.49027 11.1072 5.38894 12.0057 6.49707 12.0059C7.60533 12.0059 8.50388 11.1073 8.50391 9.99902V4.49609C8.50389 4.21668 8.27746 3.99023 7.99805 3.99023C7.71867 3.99028 7.4922 4.21671 7.49219 4.49609V9.99902C7.49216 10.5484 7.04648 10.9941 6.49707 10.9941C5.94779 10.994 5.50296 10.5483 5.50293 9.99902V4.49609C5.50295 3.11785 6.61981 2.00102 7.99805 2.00098Z" fill="#555555"/>
</svg>
