<svg width="24" height="24" viewBox="0 0 24 24" fill="none" xmlns="http://www.w3.org/2000/svg">
<path d="M14.7932 8.32785C15.1837 7.93757 15.8168 7.93757 16.2073 8.32785C16.5976 8.71833 16.5976 9.35144 16.2073 9.74192L11.7073 14.2419C11.3168 14.6322 10.6837 14.6322 10.2932 14.2419L8.29322 12.2419C7.90294 11.8514 7.90294 11.2183 8.29322 10.8279C8.6837 10.4376 9.31681 10.4376 9.70728 10.8279L11.0003 12.1208L14.7932 8.32785Z" fill="#FFFFFF"/>
<path fill-rule="evenodd" clip-rule="evenodd" d="M12.1438 1.10813L12.2864 1.12375L12.4612 1.15891C12.6317 1.20127 12.7876 1.26214 12.9133 1.3093L18.2747 3.32004C18.9466 3.57201 19.5367 3.7767 19.9837 4.17063C20.349 4.4927 20.6307 4.899 20.804 5.35422C21.0157 5.91099 21.0003 6.5352 21.0003 7.25266V12.0349C21.0001 14.8614 19.4627 17.2188 17.801 18.9499C16.1284 20.6923 14.2145 21.9229 13.2024 22.5134C13.0126 22.6242 12.7602 22.7821 12.4192 22.8552C12.16 22.9107 11.8405 22.9107 11.5813 22.8552C11.2403 22.7821 10.9879 22.6242 10.7981 22.5134C9.78598 21.9229 7.87206 20.6923 6.19947 18.9499C4.53777 17.2188 3.00038 14.8614 3.00025 12.0349V7.25266C3.00025 6.5352 2.98477 5.91099 3.19654 5.35422C3.36979 4.899 3.65146 4.4927 4.01685 4.17063C4.46385 3.7767 5.05393 3.57201 5.72584 3.32004L11.0872 1.3093C11.2548 1.24642 11.4755 1.15825 11.7141 1.12375C11.8565 1.10318 12.0006 1.09782 12.1438 1.10813ZM11.9973 3.10617C11.9565 3.11957 11.9006 3.1406 11.7893 3.18235L6.42799 5.19309C5.60341 5.50231 5.44376 5.57849 5.33912 5.67063C5.21748 5.77788 5.12342 5.91361 5.06568 6.06516C5.01617 6.19548 5.00026 6.37217 5.00025 7.25266V12.0349C5.00038 14.1166 6.13972 16.0002 7.64185 17.5652C9.13289 19.1184 10.87 20.2408 11.8059 20.7868C11.863 20.8202 11.9048 20.8438 11.9407 20.864C11.9686 20.8797 11.9875 20.8897 12.0003 20.8962C12.0131 20.8897 12.0319 20.8797 12.0598 20.864C12.0957 20.8438 12.1375 20.8202 12.1946 20.7868C13.1305 20.2408 14.8676 19.1184 16.3587 17.5652C17.8608 16.0003 19.0001 14.1166 19.0003 12.0349V7.25266C19.0003 6.37217 18.9843 6.19548 18.9348 6.06516C18.8771 5.91361 18.783 5.77788 18.6614 5.67063C18.5567 5.57849 18.3971 5.50231 17.5725 5.19309L12.2112 3.18235C12.0999 3.1406 12.044 3.11957 12.0032 3.10617L12.0003 3.1052L11.9973 3.10617Z" fill="#FFFFFF"/>
</svg>
