<svg width="24" height="24" viewBox="0 0 24 24" fill="none" xmlns="http://www.w3.org/2000/svg">
<path fill-rule="evenodd" clip-rule="evenodd" d="M11.9999 8C14.209 8.00007 15.9999 9.7909 15.9999 12C15.9999 14.2091 14.209 15.9999 11.9999 16C9.79092 15.9998 7.99988 14.209 7.99988 12C7.99988 9.791 9.79092 8.00022 11.9999 8ZM11.9999 10C10.8955 10.0002 9.99988 10.8956 9.99988 12C9.99988 13.1044 10.8955 13.9998 11.9999 14C13.1044 13.9999 13.9999 13.1045 13.9999 12C13.9999 10.8955 13.1044 10.0001 11.9999 10Z" fill="#FFFFFF"/>
<path fill-rule="evenodd" clip-rule="evenodd" d="M11.9999 4C14.8614 4.00004 17.1951 5.26438 18.9237 6.70703C20.6498 8.1477 21.8329 9.81436 22.4257 10.7529C22.5306 10.9191 22.6733 11.1312 22.7626 11.4229L22.7977 11.5527L22.8329 11.7695C22.8562 11.9953 22.8445 12.2434 22.7977 12.4473C22.7151 12.8073 22.5456 13.0571 22.4257 13.2471C21.8329 14.1856 20.6498 15.8523 18.9237 17.293C17.1951 18.7356 14.8614 20 11.9999 20C9.13854 19.9999 6.80551 18.7355 5.07702 17.293C3.35081 15.8522 2.16685 14.1856 1.57409 13.2471C1.45414 13.0572 1.2856 12.8072 1.203 12.4473C1.14067 12.1753 1.14067 11.8247 1.203 11.5527C1.2856 11.1928 1.45414 10.9428 1.57409 10.7529C2.16685 9.81436 3.35081 8.14775 5.07702 6.70703C6.80551 5.26448 9.13854 4.00012 11.9999 4ZM11.9999 6C9.75676 6.00012 7.86211 6.98806 6.35827 8.24316C4.85238 9.50008 3.79821 10.9769 3.2655 11.8203C3.23018 11.8762 3.2051 11.9162 3.18445 11.9502C3.17087 11.9726 3.16212 11.9882 3.15613 11.999C3.16211 12.0098 3.17055 12.0269 3.18445 12.0498C3.2051 12.0838 3.23018 12.1238 3.2655 12.1797C3.79821 13.0231 4.85238 14.4999 6.35827 15.7568C7.86211 17.0119 9.75676 17.9999 11.9999 18C14.2432 18 16.1385 17.012 17.6425 15.7568C19.1483 14.4999 20.2026 13.0231 20.7352 12.1797C20.7705 12.1238 20.7947 12.0838 20.8153 12.0498C20.8292 12.027 20.8376 12.0108 20.8436 12C20.8376 11.9892 20.8292 11.973 20.8153 11.9502C20.7947 11.9162 20.7705 11.8762 20.7352 11.8203C20.2026 10.9769 19.1483 9.50011 17.6425 8.24316C16.1385 6.98798 14.2432 6.00004 11.9999 6Z" fill="#FFFFFF"/>
</svg>
